<?xml version="1.0" encoding="UTF-8" standalone="no"?>
<!DOCTYPE svg PUBLIC "-//W3C//DTD SVG 1.0//EN" "http://www.w3.org/TR/2001/REC-SVG-20010904/DTD/svg10.dtd">

<svg xmlns="http://www.w3.org/2000/svg" xmlns:xlink="http://www.w3.org/1999/xlink" viewBox="0 0 160 260" >
    <path    id="tC" class="key" d="M0.39 243.32 L1.85 242.11 a0.9 0.9 0 0 1 0.576166 -0.208601 L6.46 241.9 a0.9 0.9 0 0 1 0.636396 0.263604 L9.18 244.24 a0.9 0.9 0 0 1 0.263604 0.636396 L9.44 254.73 a0.9 0.9 0 0 1 -0.253987 0.626632 L6.43 258.21 a0.9 0.9 0 0 1 -0.646013 0.273368 L2.47 258.48 a0.9 0.9 0 0 1 -0.636396 -0.263604 L0.27 256.65 a0.9 0.9 0 0 1 -0.263591 -0.641158 L0.07 244.01 a0.9 0.9 0 0 1 0.323821 -0.686637 Z" transform="translate(21.7251,-123.156)"/>
</svg>
