<?xml version="1.0" encoding="UTF-8" standalone="no"?>
<!DOCTYPE svg PUBLIC "-//W3C//DTD SVG 1.0//EN" "http://www.w3.org/TR/2001/REC-SVG-20010904/DTD/svg10.dtd">

<svg xmlns="http://www.w3.org/2000/svg" xmlns:xlink="http://www.w3.org/1999/xlink" viewBox="0 0 160 260" >
    <path    id="tF" class="key" d="M2.36 236.32 L0.34 237.91 a0.9 0.9 -180 0 0 -0.343239 0.707119 L0 256.45 A3.88054 2.03078 -180 0 0 3.88 258.48 A5.11025 3.1939 -180 0 0 8.99 255.29 L8.99 252.22 a0.9 0.9 0 0 1 0.625899 -0.857245 A3.1939 5.11025 -180 0 0 12.18 246.35 A3.1939 5.11025 -180 0 0 9.59 241.33 a0.9 0.9 0 0 1 -0.632207 -0.783667 A3.1939 5.11025 -180 0 0 5.8 236.13 L2.91 236.13 a0.9 0.9 -180 0 0 -0.556761 0.192881 Z" transform="translate(27.8344,-50.3774)"/>
</svg>
