<?xml version="1.0" encoding="UTF-8"?>
<svg xmlns:svg="http://www.w3.org/2000/svg" xmlns="http://www.w3.org/2000/svg" version="1.1" viewBox="0 0 500 1000">
<!-- eight  --> <path id="8va"          class="key"      d="M17 220c0 -9 33 -53 53 -53c14 0 17 22 17 35c0 7 -1 15 -3 15c-4 0 -18 -15 -30 -15 c-18 0 -30 21 -35 21c-1 0 -2 -2 -2 -3z" />
<!-- zero   --> <path id="thumbcatch"   class="normal"   d="M26 236c0 -15 13 -27 28 -27s26 12 26 27s-11 27 -26 27s-28 -12 -28 -27z" />
<!-- nine   --> <path id="nine"         class="key"      d="M76 263c0 9.48633 0 32 -11 32c-12.5176 0 -33.6592 -25.5469 -33.6592 -31c0 -0.645508 0.129883 -1 0.65918 -1c5.83105 0 8.9502 8 19 8c9.28027 0 23 -9.14062 24 -9.14062s1 0.783203 1 1.14062z" />

<!-- x      --> <path id="x"            class="key"      d="M162 17h6c8 33 17 56 23 56c1 0 2 0 3 -1c0 12 -12 23 -30 23c-20 0 -31 -12 -31 -23c0 0 1 1 3 1c7 0 18 -24 26 -56z" />
<!-- one    --> <path id="1"            class="key"      d="M122 151c0 23 19 42 43 42 c23 0 42 -19 42 -42c0 -24 -19 -43 -42 -43c-24 0 -43 19 -43 43z" />
<!-- p      --> <path id="p"            class="key"      d="M180 217c0 -12 9 -21 21 -21s21 9 21 21 c0 11 -9 20 -21 20s-21 -9 -21 -20z" />
<!-- two    --> <path id="2"            class="key"      d="M119 287c0 -26 21 -46 46 -46s45 20 45 46c0 25 -20 45 -45 45s-46 -20 -46 -45z" />
<!-- three  --> <path id="3"            class="key"      d="M119 406c0 -26 21 -46 46 -46s45 20 45 46 c0 25 -20 45 -45 45s-46 -20 -46 -45z" />

<!-- hyphen --> <path id="middleLine"   class="normal"   d="M117 499c0 -1 1 -2 2 -2h90c1 0 2 1 2 2s-1 1 -2 1h-90c-1 0 -2 0 -2 -1z" />

<!-- four   --> <path id="4"            class="key"      d="M119 593c0 -26 21 -46 46 -46s45 20 45 46c0 25 -20 45 -45 45s-46 -20 -46 -45z" />
<!-- five   --> <path id="5"            class="key"      d="M119 721c0 -26 21 -46 46 -46s45 20 45 46c0 25 -20 45 -45 45s-46 -20 -46 -45z" />
<!-- six    --> <path id="6"            class="key"      d="M119 850c0 -26 21 -46 46 -46s45 20 45 46 c0 25 -20 45 -45 45s-46 -20 -46 -45z" />

<!-- d      --> <path id="d"            class="key"      d="M111 913c0 6 -5 12 -11 12h-52c-4 0 -11 -7 -11 -12v-16c0 -7 11 -15 17 -15h40c5 0 17 12 17 15v16z" />
<!-- seven  --> <path id="7"            class="key"      d="M110 946c0 -6 -5 -12 -11 -12h-52c-4 0 -11 7 -11 12v16c0 7 11 15 17 15h40c5 0 17 -12 17 -15v-16z" />

<!-- q      --> <path id="c1"           class="key"      d="M289 255c-20 0 -41 -47 -41 -83c0 -17 4 -33 13 -33c23 0 44 46 44 84c0 17 -4 32 -16 32z" />
<!-- w      --> <path id="c2"           class="key"      d="M315 144c-20 0 -41 -47 -41 -83c0 -17 4 -33 13 -33c23 0 44 46 44 84c0 17 -4 32 -16 32z" />
<!-- e      --> <path id="c3"           class="key"      d="M63 366c7 0 12 9 12 12v51c0 4 -5 11 -12 11h-17c-5 0 -14 -9 -14 -14v-44 c0 -4 10 -16 17 -16h14z" />
<!-- r      --> <path id="c4"           class="key"      d="M390 230c-20 0 -41 -47 -41 -83 c0 -17 4 -33 13 -33c23 0 44 46 44 84c0 17 -4 32 -16 32z" />
<!-- t      --> <path id="c5"           class="key"      d="M72 638c0 -6 16 -10 29 -10c4 0 7 1 7 6v63c0 10 -10 33 -17 33c-15 0 -35 -12 -35 -12s16 -37 16 -40v-40z" />

<!-- a      --> <path id="Ta"           class="key"      d="M44 616c-6 0 -12 -6 -12 -12v-54c0 -6 7 -8 21 -8c18 0 22 6 22 10v45c0 5 -12 19 -15 19h-16z" />
<!-- c      --> <path id="Tc"           class="key"      d="M44 528 c-6 0 -12 -6 -12 -12v-52c0 -4 7 -11 12 -11h16c7 0 15 11 15 17v40c0 3 -12 18 -15 18h-16z" />
<!-- f      --> <path id="Tf"           class="key"      d="M76 743c18 0 24 8 24 20 c0 1 0 3 1 3c8 0 13 12 13 23s-3 23 -13 23c-1 0 -1 1 -1 2v13c0 9 -11 15 -24 15c-9 0 -18 -3 -18 -10v-78c0 -4 5 -11 18 -11z" />

<!-- g      --> <path id="G#"           class="key"      d="M264 426h89c7 0 10 9 10 15c0 15 -25 30 -51 30 c-32 0 -60 -13 -60 -30c0 -7 4 -15 12 -15z" />
<!-- v      --> <path id="C#"           class="key"      d="M236 467c35 0 65 19 65 43c0 10 -7 19 -16 19h-35c-8 0 -14 -6 -14 -13v-49z" />
<!-- b      --> <path id="B"            class="key"      d="M381 516c0 10 -9 13 -17 13h-33c-13 0 -18 -12 -18 -25c0 -23.2207 34.7354 -36 68 -36v48z" />
<!-- h      --> <path id="Bb"           class="key"      d="M262 540h84c12 0 22 8 22 19c0 16 -30 28 -65 28c-33 0 -60 -13 -60 -31 c0 -9 8 -16 19 -16z" />
</svg>
