<svg xmlns="http://www.w3.org/2000/svg" xmlns:svg="http://www.w3.org/2000/svg" viewBox="0 0 160 260"><path id="8va" d="m 18.35034,64.557824 c 0.343,0.562479 3.404762,-4.068028 6.853742,-4.59864 3.408873,-0.524442 6.267857,2.343537 7.693877,3.272109 1.527789,0.99484 1.540461,-11.138949 -3.006803,-10.877551 -4.547264,0.261398 -12.291822,10.97252 -11.540816,12.204082 z" class="key"/><circle id="ThumbCatch" cx="26.322" cy="68.032" r="6.253"/><path id="A" d="m 31.552525,74.020238 c -0.210517,-0.397534 -2.551189,1.943939 -4.923759,2.163008 -2.344979,0.216522 -4.112422,-1.168449 -5.045935,-1.860259 -1.000135,-0.741182 4.309017,7.460117 7.418989,7.469928 3.109971,0.0098 3.011642,-6.902268 2.550705,-7.772677 z" class="key"/><path id="X" d="M 51.94,17.5 A 3.49578,14.9791 13.71 0 1 45,30.69 6.9375,4.39604 0 0 0 51.94,35.08 6.9375,4.39604 0 0 0 58.88,30.69 14.9791,3.49578 76.29 0 1 51.94,17.5 Z" class="key"/><circle id="1" cx="52.204" cy="48.294" r="10.154" class="key"/><circle id="P" cx="60.581" cy="63.573" r="4.485" class="key"/><circle id="2" cx="52.204" cy="79.819" r="10.154" class="key"/><circle id="3" cx="52.204" cy="107.187" r="10.154" class="key"/><path id="MiddleLine" d="m 43.4037,128.845 h 18.95" class="normal"/><circle id="4" cx="52.204" cy="150.51" r="10.154" class="key"/><circle id="5" cx="52.204" cy="180.295" r="10.154" class="key"/><circle id="6" cx="52.204" cy="210.08" r="10.154" class="key"/><path id="Eb" d="m 27.005,230.363 h 19.12 a 10.125,6.75 0 0 0 -10.12,-6.75 9,6.75 0 0 0 -9,6.75 z" class="key"/><path id="7" d="M 46.12,233.73 H 27 a 10.125,6.75 0 0 0 10.12,6.75 9,6.75 0 0 0 9,-6.75 z" class="key"/><ellipse id="C1" cx="72.578" cy="54.029" class="key" rx="5.415" ry="13.539" transform="rotate(-15)"/><ellipse id="C2" cx="82.515" cy="76.313" class="key" rx="5.415" ry="13.539" transform="rotate(-15)"/><path id="C3" d="m 30.7782,113.599 -1.46,1.21 a -0.9,-0.9 0 0 1 -0.576166,0.2086 l -4.033834,0.001 a -0.9,-0.9 0 0 1 -0.636396,-0.2636 L 21.9882,112.679 a -0.9,-0.9 0 0 1 -0.263604,-0.6364 l 0.0036,-9.8536 a -0.9,-0.9 0 0 1 0.253987,-0.62663 L 24.7382,98.709 a -0.9,-0.9 0 0 1 0.646013,-0.27337 L 28.6982,98.439 a -0.9,-0.9 0 0 1 0.636396,0.2636 l 1.563604,1.5664 a -0.9,-0.9 0 0 1 0.263591,0.64116 L 31.0982,112.909 a -0.9,-0.9 0 0 1 -0.323821,0.68664 z" class="key"/><ellipse id="C4" cx="60.189" cy="75.938" class="key" rx="5.415" ry="13.539" transform="rotate(-15)"/><path id="C5" d="m 31.9544,160.2416 5.65,-1.03 a 0.9,0.9 0 0 1 1.061,0.88548 l -10e-4,14.95452 a 0.9,0.9 0 0 1 -0.09502,0.40249 l -2.93498,5.86751 a 0.9,0.9 0 0 1 -1.11255,0.44332 L 28.6944,179.6416 a 0.9,0.9 0 0 1 -0.532442,-1.1689 l 2.992442,-7.7911 a 0.9,0.9 0 0 0 0.05999,-0.32308 l 1.1e-5,-9.23692 a 0.9,0.9 0 0 1 0.739003,-0.88548 z" class="key"/><path id="tA" d="m 22.1151,140.471 1.46,-1.21 a 0.9,0.9 0 0 1 0.576166,-0.2086 l 4.033834,-0.001 a 0.9,0.9 0 0 1 0.636396,0.2636 l 2.083604,2.0764 a 0.9,0.9 0 0 1 0.263604,0.6364 l -0.0036,9.8536 a 0.9,0.9 0 0 1 -0.253987,0.62663 L 28.1551,155.361 a 0.9,0.9 0 0 1 -0.646013,0.27337 L 24.1951,155.631 a 0.9,0.9 0 0 1 -0.636396,-0.2636 L 21.9951,153.801 a 0.9,0.9 0 0 1 -0.263591,-0.64116 L 21.7951,141.161 a 0.9,0.9 0 0 1 0.323821,-0.68664 z" class="key"/><path id="tC" d="m 22.1151,120.164 1.46,-1.21 a 0.9,0.9 0 0 1 0.576166,-0.2086 l 4.033834,-0.001 a 0.9,0.9 0 0 1 0.636396,0.2636 l 2.083604,2.0764 a 0.9,0.9 0 0 1 0.263604,0.6364 l -0.0036,9.8536 a 0.9,0.9 0 0 1 -0.253987,0.62663 L 28.1551,135.054 a 0.9,0.9 0 0 1 -0.646013,0.27337 L 24.1951,135.324 a 0.9,0.9 0 0 1 -0.636396,-0.2636 L 21.9951,133.494 a 0.9,0.9 0 0 1 -0.263591,-0.64116 L 21.7951,120.854 a 0.9,0.9 0 0 1 0.323821,-0.68664 z" class="key"/><path id="tF" d="m 30.1944,185.9426 -2.02,1.59 a 0.9,0.9 0 0 0 -0.343239,0.70712 l 0.0032,17.83288 a 3.88054,2.03078 0 0 0 3.88,2.03 5.11025,3.1939 0 0 0 5.11,-3.19 v -3.07 a 0.9,0.9 0 0 1 0.625899,-0.85725 3.1939,5.11025 0 0 0 2.564101,-5.01275 3.1939,5.11025 0 0 0 -2.59,-5.02 0.9,0.9 0 0 1 -0.632207,-0.78367 3.1939,5.11025 0 0 0 -3.157793,-4.41633 h -2.89 a 0.9,0.9 0 0 0 -0.556761,0.19288 z" class="key"/><path id="G#" d="m 72.7745,115.015 a 2.28715,2.03302 0 0 1 2.36,-2.04 h 20.57 0.08 a 10.6929,5.64349 0 0 1 -9.48,8.8 13.1319,6.2533 0 0 1 -13.53,-6.76 z" class="key"/><path id="B" d="m 69.1975,122.124 a 14.2155,9.13852 0 0 1 14.21,9.14 3.38464,4.06156 0 0 1 -3.38,4.06 h -8.12 a 3.04617,2.70771 0 0 1 -3.05,-2.7 z" class="key"/><path id="C#" d="m 101.686,133.3 a 3.38464,2.70771 0 0 1 -3.38,2.7 h -8.13 a 3.38464,5.41542 0 0 1 -3.38,-5.41 14.0471,8.93909 5.91 0 1 14.89,-7.45 z" class="key"/><path id="Bb" d="m 74.6098,138.712 h 19.63 a 4.73849,4.06156 0 0 1 4.74,4.06 14.8924,6.09235 0 0 1 -14.89,6.09 13.5385,6.76927 0 0 1 -13.54,-6.77 4.06156,3.38464 0 0 1 4.06,-3.38 z" class="key"/></svg>