<svg xmlns="http://www.w3.org/2000/svg" xmlns:svg="http://www.w3.org/2000/svg" version="1.1" viewBox="0 0 500 1000"><path id="8va" d="m 18.519186,220.81093 c 1.481914,2.43016 14.7101,-17.57571 29.611243,-19.86819 14.727861,-2.26583 27.079956,10.12513 33.241003,14.13698 6.600734,4.29815 6.655483,-48.12526 -12.990739,-46.99591 -19.646222,1.12936 -53.10619,47.40622 -49.861507,52.72712 z" class="key"/><circle id="ThumbCatch" cx="52.961" cy="235.821" r="27.017" class="normal"/><path id="A" d="m 75.558553,261.6928 c -0.909528,-1.71752 -11.022282,8.39869 -21.27285,9.34517 -10.131362,0.93547 -17.767509,-5.04822 -21.800705,-8.03715 -4.321032,-3.20224 18.616888,32.23105 32.053364,32.27344 13.436471,0.0423 13.011645,-29.8209 11.020191,-33.58146 z" class="key"/><path id="X" d="M 163.6416,17.5 A 15.103339,64.716437 13.71 0 1 133.65768,74.486722 29.973115,18.992866 0 0 0 163.6416,93.453493 29.973115,18.992866 0 0 0 193.62551,74.486722 64.716437,15.103339 76.29 0 1 163.6416,17.5 Z" class="key"/><circle id="1" cx="164.781" cy="150.544" r="43.869" class="key"/><circle id="P" cx="200.973" cy="216.556" r="19.376" class="key"/><circle id="2" cx="164.781" cy="286.746" r="43.869" class="key"/><circle id="3" cx="164.781" cy="404.988" r="43.869" class="key"/><path id="MiddleLine" d="m 117.24653,498.46319 c -0.0167,-0.60893 0.35274,-1.37617 1.53061,-1.34236 26.44247,0.75884 68.01568,0.31311 90.64626,0 1.14748,-0.0159 2.86492,0.13314 2.89116,1.24268 0.0363,1.5365 -1.44403,1.67998 -2.17994,1.66896 -11.44281,-0.17143 -64.07604,-0.39948 -91.44251,-0.003 -1.03908,-0.0119 -1.41462,-0.43724 -1.44558,-1.56611 z" class="normal"/><circle id="4" cx="164.781" cy="592.165" r="43.869" class="key"/><circle id="5" cx="164.781" cy="720.848" r="43.869" class="key"/><circle id="6" cx="164.781" cy="849.532" r="43.869" class="key"/><path id="Eb" d="M 55.911203,937.16373 H 138.51819 A 43.744546,29.163031 0 0 0 94.795244,908.0007 38.884041,29.163031 0 0 0 55.911203,937.16373 Z" class="key"/><path id="7" d="M 138.49658,951.71068 H 55.889601 a 43.744546,29.163031 0 0 0 43.722943,29.16303 38.884041,29.163031 0 0 0 38.884036,-29.16303 z" class="key"/><ellipse id="C1" cx="269.916" cy="161.573" class="key" rx="23.397" ry="58.492" transform="rotate(-15)"/><ellipse id="C2" cx="312.847" cy="257.851" class="key" rx="23.397" ry="58.492" transform="rotate(-15)"/><path id="C3" d="m 72.213121,432.69083 -6.307856,5.22774 a 3.8884041,3.8884041 0 0 1 -2.489295,0.90124 l -17.427974,0.004 a 3.8884041,3.8884041 0 0 1 -2.749517,-1.13888 l -9.002105,-8.96925 a 3.8884041,3.8884041 0 0 1 -1.138887,-2.74953 l 0.01555,-42.57198 a 3.8884041,3.8884041 0 0 1 1.097338,-2.70732 l 11.907231,-12.32784 a 3.8884041,3.8884041 0 0 1 2.791066,-1.18108 l 14.317912,0.0146 a 3.8884041,3.8884041 0 0 1 2.749517,1.13887 l 6.755471,6.76755 a 3.8884041,3.8884041 0 0 1 1.138831,2.7701 l -0.274741,51.84038 a 3.8884041,3.8884041 0 0 1 -1.399053,2.96659 z" class="key"/><ellipse id="C4" cx="216.391" cy="256.23" class="key" rx="23.397" ry="58.492" transform="rotate(-15)"/><path id="C5" d="m 77.294833,634.2078 24.410537,-4.45006 a 3.8884041,3.8884041 0 0 1 4.584,3.82567 l -0.004,64.61024 a 3.8884041,3.8884041 0 0 1 -0.41053,1.73894 l -12.680435,25.35027 a 3.8884041,3.8884041 0 0 1 -4.806715,1.91534 l -25.177201,-9.17369 a 3.8884041,3.8884041 0 0 1 -2.300388,-5.05017 l 12.928693,-33.66105 a 3.8884041,3.8884041 0 0 0 0.259184,-1.39585 l 4.7e-5,-39.90765 a 3.8884041,3.8884041 0 0 1 3.192825,-3.82567 z" class="key"/><path id="tA" d="m 34.784639,548.78993 6.307856,-5.22774 a 3.8884041,3.8884041 0 0 1 2.489296,-0.90125 l 17.427974,-0.004 a 3.8884041,3.8884041 0 0 1 2.749516,1.13887 l 9.002105,8.97098 a 3.8884041,3.8884041 0 0 1 1.138888,2.74954 l -0.01555,42.57197 a 3.8884041,3.8884041 0 0 1 -1.097338,2.70732 l -11.907231,12.32612 a 3.8884041,3.8884041 0 0 1 -2.791066,1.18108 l -14.317912,-0.0146 a 3.8884041,3.8884041 0 0 1 -2.749516,-1.13887 L 34.26619,606.3818 a 3.8884041,3.8884041 0 0 1 -1.138832,-2.7701 L 33.4021,551.77132 a 3.8884041,3.8884041 0 0 1 1.399052,-2.96659 z" class="key"/><path id="tC" d="m 34.784639,461.05457 6.307856,-5.22774 a 3.8884041,3.8884041 0 0 1 2.489296,-0.90125 l 17.427974,-0.004 a 3.8884041,3.8884041 0 0 1 2.749516,1.13887 l 9.002105,8.97098 a 3.8884041,3.8884041 0 0 1 1.138888,2.74954 l -0.01555,42.57197 a 3.8884041,3.8884041 0 0 1 -1.097338,2.70733 l -11.907231,12.32611 a 3.8884041,3.8884041 0 0 1 -2.791066,1.18108 l -14.317912,-0.0146 a 3.8884041,3.8884041 0 0 1 -2.749516,-1.13887 l -6.755471,-6.76755 a 3.8884041,3.8884041 0 0 1 -1.138832,-2.7701 L 33.4021,464.03596 a 3.8884041,3.8884041 0 0 1 1.399052,-2.96659 z" class="key"/><path id="tF" d="m 69.690843,745.24766 -8.727307,6.86951 a 3.8884041,3.8884041 0 0 0 -1.482947,3.05508 l 0.01383,77.04605 a 16.765675,8.7738814 0 0 0 16.763342,8.77051 22.078574,13.799082 0 0 0 22.077494,-13.78224 V 813.9428 a 3.8884041,3.8884041 0 0 1 2.704165,-3.70371 13.799082,22.078574 0 0 0 11.07806,-21.65733 13.799082,22.078574 0 0 0 -11.18996,-21.68865 3.8884041,3.8884041 0 0 1 -2.731414,-3.38581 13.799082,22.078574 0 0 0 -13.643083,-19.08053 H 72.066921 a 3.8884041,3.8884041 0 0 0 -2.405457,0.83333 z" class="key"/><path id="G#" d="m 253.65599,438.80858 a 9.8815149,8.7835592 0 0 1 10.19626,-8.81371 h 88.87164 0.34563 a 46.198129,24.382411 0 0 1 -40.95785,38.01995 56.735704,27.017064 0 0 1 -58.45568,-29.20624 z" class="key"/><path id="B" d="m 238.20175,469.52265 a 61.417342,39.482509 0 0 1 61.39358,39.48891 14.623164,17.547763 0 0 1 -14.60312,17.54102 h -35.08205 a 13.160822,11.698523 0 0 1 -13.17737,-11.66521 z" class="key"/><path id="C#" d="m 378.56665,517.80799 a 14.623164,11.698523 0 0 1 -14.60312,11.66521 h -35.12525 a 14.623164,23.397046 0 0 1 -14.60311,-23.37363 60.689779,38.620882 5.91 0 1 64.33148,-32.18734 z" class="key"/><path id="Bb" d="m 261.58531,541.19026 h 84.81042 a 20.472404,17.547763 0 0 1 20.47892,17.54102 64.341854,26.321687 0 0 1 -64.33148,26.31154 58.492398,29.246286 0 0 1 -58.49888,-29.24944 17.547763,14.623164 0 0 1 17.54102,-14.60312 z" class="key"/></svg>