<svg xmlns="http://www.w3.org/2000/svg" xmlns:xlink="http://www.w3.org/1999/xlink" version="1.1" viewBox="-10 0 460 1000"><path fill="currentColor" d="M111 913c0 6 -5 12 -11 12h-52c-4 0 -11 -7 -11 -12v-16c0 -7 11 -15 17 -15h40c5 0 17 12 17 15v16zM40 913c0 4 4 9 8 9h52c4 0 7 -6 7 -9v-14c0 -4 -8 -14 -13 -14h-40c-6 0 -14 6 -14 12v16zM110 946v16c0 3 -12 15 -17 15h-40c-6 0 -17 -8 -17 -15v-16 c0 -5 7 -12 11 -12h52c6 0 11 6 11 12zM39 946v16c0 6 8 12 14 12h40c5 0 13 -10 13 -14v-14c0 -3 -3 -9 -7 -9h-52c-4 0 -8 5 -8 9zM262 540h84c12 0 22 8 22 19c0 16 -30 28 -65 28c-33 0 -60 -13 -60 -31c0 -9 8 -16 19 -16zM262 543c-9 0 -16 6 -16 13c0 14 24 28 57 28 c35 0 62 -13 62 -25c0 -9 -8 -16 -19 -16h-84zM381 516c0 10 -9 13 -17 13h-33c-13 0 -18 -12 -18 -25c0 -23 35 -36 68 -36v48zM377 516v-42c-32 0 -61 10 -61 30c0 13 8 21 15 21h33c7 0 13 -4 13 -9zM236 467c35 0 65 19 65 43c0 10 -7 19 -16 19h-35 c-8 0 -14 -6 -14 -13v-49zM240 471v45c0 5 3 9 10 9h35c7 0 13 -6 13 -15c0 -20 -25 -39 -58 -39zM264 426h89c7 0 10 9 10 15c0 15 -25 30 -51 30c-32 0 -60 -13 -60 -30c0 -7 4 -15 12 -15zM359 441c0 -5 -2 -12 -6 -12h-89c-6 0 -9 7 -9 12c0 14 26 26 58 26 c26 0 46 -14 46 -26zM76 743c18 0 24 8 24 20c0 1 0 3 1 3c8 0 13 12 13 23s-3 23 -13 23c-1 0 -1 1 -1 2v13c0 9 -11 15 -24 15c-9 0 -18 -3 -18 -10v-78c0 -4 5 -11 18 -11zM97 814c0 -2 1 -5 4 -5c5 0 10 -10 10 -20c0 -11 -5 -20 -11 -20c-8 0 5 -23 -24 -23 c-12 0 -15 7 -15 8v78c0 3 6 7 15 7c12 0 21 -6 21 -12v-13zM44 528c-6 0 -12 -6 -12 -12v-52c0 -4 7 -11 12 -11h16c7 0 15 11 15 17v40c0 3 -12 18 -15 18h-16zM44 456c-4 0 -9 4 -9 8v52c0 4 6 7 9 7h14c4 0 14 -8 14 -13v-40c0 -6 -6 -14 -12 -14h-16zM44 616 c-6 0 -12 -6 -12 -12v-54c0 -6 7 -8 21 -8c18 0 22 6 22 10v45c0 5 -12 19 -15 19h-16zM53 545c-13 0 -18 3 -18 5v54c0 3 7 9 9 9h16c1 0 12 -12 12 -16v-45c0 -5 -7 -7 -19 -7zM72 638c0 -6 16 -10 29 -10c4 0 7 1 7 6v63c0 10 -10 33 -17 33c-15 0 -35 -12 -35 -12 s16 -37 16 -40v-40zM102 631c-7 0 -26 4 -26 7v40c0 7 -14 38 -14 38s17 10 27 10c5 0 13 -17 15 -29v-63c0 -1 -1 -3 -2 -3zM63 366c7 0 12 9 12 12v51c0 4 -5 11 -12 11h-17c-5 0 -14 -9 -14 -14v-44c0 -4 10 -16 17 -16h14zM72 378c0 -4 -5 -9 -9 -9h-14 c-4 0 -14 10 -14 13v44c0 5 6 11 11 11h17c6 0 9 -3 9 -8v-51zM315 144c-20 0 -41 -47 -41 -83c0 -17 4 -33 13 -33c23 0 44 46 44 84c0 17 -4 32 -16 32zM277 61c0 34 22 80 38 80c9 0 13 -13 13 -29c0 -36 -22 -81 -40 -81c-6 0 -10 8 -10 20c0 3 -1 6 -1 10zM117 499 c0 -1 1 -2 2 -2h90c1 0 2 1 2 2s-1 1 -2 1h-90c-1 0 -2 0 -2 -1zM180 217c0 -12 9 -21 21 -21s21 9 21 21c0 11 -9 20 -21 20s-21 -9 -21 -20zM183 217c0 9 8 17 18 17s18 -8 18 -17c0 -10 -8 -18 -18 -18s-18 8 -18 18zM119 151c0 -26 21 -46 46 -46s45 20 45 46 c0 25 -20 45 -45 45s-46 -20 -46 -45zM122 151c0 23 19 42 43 42c23 0 42 -19 42 -42c0 -24 -19 -43 -42 -43c-24 0 -43 19 -43 43zM162 17h6c8 33 17 56 23 56c1 0 2 0 3 -1c0 12 -12 23 -30 23c-20 0 -31 -12 -31 -23c0 0 1 1 3 1c7 0 18 -24 26 -56zM26 236 c0 -15 13 -27 28 -27s26 12 26 27s-11 27 -26 27s-28 -12 -28 -27zM17 220c0 -9 33 -53 53 -53c14 0 17 22 17 35c0 7 -1 15 -3 15c-4 0 -18 -15 -30 -15c-18 0 -30 21 -35 21c-1 0 -2 -2 -2 -3zM20 218c8 -7 17 -19 32 -19c13 0 24 9 30 15c1 -2 2 -6 2 -12 c0 -14 -5 -32 -15 -32c-17 0 -46 39 -49 48zM390 230c-20 0 -41 -47 -41 -83c0 -17 4 -33 13 -33c23 0 44 46 44 84c0 17 -4 32 -16 32zM352 147c0 34 22 80 38 80c9 0 13 -13 13 -29c0 -36 -22 -81 -40 -81c-7 0 -11 13 -11 30zM289 255c-20 0 -41 -47 -41 -83 c0 -17 4 -33 13 -33c23 0 44 46 44 84c0 17 -4 32 -16 32zM251 172c0 34 22 80 38 80c9 0 13 -13 13 -29c0 -36 -22 -81 -40 -81c-7 0 -11 13 -11 30zM119 287c0 -26 21 -46 46 -46s45 20 45 46c0 25 -20 45 -45 45s-46 -20 -46 -45zM122 287c0 23 19 42 43 42 c23 0 42 -19 42 -42c0 -24 -19 -43 -42 -43c-24 0 -43 19 -43 43zM119 406c0 -26 21 -46 46 -46s45 20 45 46c0 25 -20 45 -45 45s-46 -20 -46 -45zM122 406c0 23 19 42 43 42c23 0 42 -19 42 -42c0 -24 -19 -43 -42 -43c-24 0 -43 19 -43 43zM119 593c0 -26 21 -46 46 -46 s45 20 45 46c0 25 -20 45 -45 45s-46 -20 -46 -45zM122 593c0 23 19 42 43 42c23 0 42 -19 42 -42c0 -24 -19 -43 -42 -43c-24 0 -43 19 -43 43zM119 721c0 -26 21 -46 46 -46s45 20 45 46c0 25 -20 45 -45 45s-46 -20 -46 -45zM122 721c0 23 19 42 43 42 c23 0 42 -19 42 -42c0 -24 -19 -43 -42 -43c-24 0 -43 19 -43 43zM119 850c0 -26 21 -46 46 -46s45 20 45 46c0 25 -20 45 -45 45s-46 -20 -46 -45zM122 850c0 23 19 42 43 42c23 0 42 -19 42 -42c0 -24 -19 -43 -42 -43c-24 0 -43 19 -43 43zM164 92c15 0 26 -11 26 -16 c-5 0 -9 -7 -13 -18c-4 -10 -8 -24 -12 -38c-9 30 -18 56 -28 56c0 4 11 16 27 16z"/></svg>